<svg width="512" height="512" viewBox="0 0 512 512" fill="none" xmlns="http://www.w3.org/2000/svg">
  <rect width="512" height="512" rx="120" fill="url(#bg)"/>
  <rect x="36" y="36" width="440" height="440" rx="104" stroke="rgba(255,255,255,0.42)" stroke-width="2"/>
  <path d="M162 172C162 141.072 187.072 116 218 116H322V160H226C212.745 160 202 170.745 202 184C202 197.255 212.745 208 226 208H286C329.078 208 364 242.922 364 286C364 329.078 329.078 364 286 364H176V320H278C291.255 320 302 309.255 302 296C302 282.745 291.255 272 278 272H218C187.072 272 162 246.928 162 216V172Z" fill="#FFF8F0"/>
  <path d="M210 148H256C315.647 148 364 196.353 364 256C364 315.647 315.647 364 256 364H210V320H250C287.555 320 318 289.555 318 252C318 214.445 287.555 184 250 184H210V148Z" fill="#181818" fill-opacity="0.22"/>
  <circle cx="334" cy="166" r="22" fill="#FFF8F0"/>
  <circle cx="334" cy="166" r="10" fill="#181818"/>
  <defs>
    <linearGradient id="bg" x1="74" y1="58" x2="434" y2="456" gradientUnits="userSpaceOnUse">
      <stop stop-color="#A96A3C"/>
      <stop offset="0.55" stop-color="#7B4827"/>
      <stop offset="1" stop-color="#1B120D"/>
    </linearGradient>
  </defs>
</svg>
