<svg width="512" height="512" viewBox="0 0 512 512" fill="none" xmlns="http://www.w3.org/2000/svg">
  <rect width="512" height="512" rx="120" fill="#FFF8F0"/>
  <rect x="28" y="28" width="456" height="456" rx="92" stroke="#D8B996" stroke-width="8"/>
  <path d="M170 170C170 135.758 197.758 108 232 108H318V160H236C221.641 160 210 171.641 210 186C210 200.359 221.641 212 236 212H284C329.287 212 366 248.713 366 294C366 339.287 329.287 376 284 376H168V324H280C294.359 324 306 312.359 306 298C306 283.641 294.359 272 280 272H232C197.758 272 170 244.242 170 210V170Z" fill="#7B4827"/>
  <circle cx="340" cy="160" r="34" fill="#D39A67"/>
  <circle cx="340" cy="160" r="12" fill="#FFF8F0"/>
</svg>
